<?xml version="1.0" encoding="UTF-8" standalone="no"?>
<!DOCTYPE svg PUBLIC "-//W3C//DTD SVG 1.1//EN" "http://www.w3.org/Graphics/SVG/1.1/DTD/svg11.dtd">
<svg width="100%" height="100%" viewBox="0 0 1920 1080" version="1.1" xmlns="http://www.w3.org/2000/svg" xmlns:xlink="http://www.w3.org/1999/xlink" xml:space="preserve" xmlns:serif="http://www.serif.com/" style="fill-rule:evenodd;clip-rule:evenodd;stroke-linejoin:round;stroke-miterlimit:2;">
    <g transform="matrix(1.0008,0,0,0.997163,-1.54093,3.06724)">
        <rect x="1.54" y="-4.282" width="1918.03" height="1085.49" style="fill:rgb(255,216,0);"/>
    </g>
    <g transform="matrix(0.137654,-0.226672,0.208356,0.126531,1373.88,1180.53)">
        <path d="M1772.97,835.244L1920.15,1081.6L1625.8,1081.6L1772.97,835.244Z" style="fill:rgb(35,32,32);"/>
    </g>
    <g transform="matrix(0.256502,-0.067348,0.061906,0.235776,1212.68,796.425)">
        <path d="M1772.97,835.244L1920.15,1081.6L1625.8,1081.6L1772.97,835.244Z" style="fill:rgb(35,32,32);"/>
    </g>
    <g transform="matrix(0.247474,-0.0953171,0.0876151,0.227478,1244.08,932.491)">
        <path d="M1772.97,835.244L1920.15,1081.6L1625.8,1081.6L1772.97,835.244Z" style="fill:rgb(35,32,32);"/>
    </g>
    <g transform="matrix(0.247474,-0.0953171,0.0876151,0.227478,1219.44,7.1341)">
        <path d="M1772.97,835.244L1920.15,1081.6L1625.8,1081.6L1772.97,835.244Z" style="fill:rgb(35,32,32);"/>
    </g>
    <g transform="matrix(-0.265103,0.00701125,-0.00644471,-0.243682,1232.97,243.404)">
        <path d="M1772.97,835.244L1920.15,1081.6L1625.8,1081.6L1772.97,835.244Z" style="fill:rgb(35,32,32);"/>
    </g>
    <g transform="matrix(0.247474,-0.0953171,0.0876151,0.227478,1299.51,25.6104)">
        <path d="M1772.97,835.244L1920.15,1081.6L1625.8,1081.6L1772.97,835.244Z" style="fill:rgb(35,32,32);"/>
    </g>
    <g transform="matrix(0.247474,-0.0953171,0.0876151,0.227478,1248.7,85.6586)">
        <path d="M1772.97,835.244L1920.15,1081.6L1625.8,1081.6L1772.97,835.244Z" style="fill:rgb(35,32,32);"/>
    </g>
    <g transform="matrix(0.247474,-0.0953171,0.0876151,0.227478,-458.825,763.124)">
        <path d="M1772.97,835.244L1920.15,1081.6L1625.8,1081.6L1772.97,835.244Z" style="fill:rgb(35,32,32);"/>
    </g>
    <g transform="matrix(0.1393,0.225664,-0.20743,0.128044,94.2661,366.316)">
        <path d="M1772.97,835.244L1920.15,1081.6L1625.8,1081.6L1772.97,835.244Z" style="fill:rgb(35,32,32);"/>
    </g>
    <g transform="matrix(-0.00384842,0.265168,-0.243742,-0.00353745,429.119,536.16)">
        <path d="M1772.97,835.244L1920.15,1081.6L1625.8,1081.6L1772.97,835.244Z" style="fill:rgb(35,32,32);"/>
    </g>
    <g transform="matrix(1.05426,0,0,1.29032,-117.138,-49.1845)">
        <ellipse cx="111.197" cy="111.818" rx="99.31" ry="95.461" style="fill:rgb(35,32,32);"/>
    </g>
    <g transform="matrix(1.19658,0.353793,-0.305921,1.03467,-152.155,-235.843)">
        <ellipse cx="305.198" cy="165.708" rx="86.993" ry="87.763" style="fill:rgb(35,32,32);"/>
    </g>
    <g transform="matrix(1.84227,0.604562,-0.61401,1.87106,-134.437,301.436)">
        <ellipse cx="165.086" cy="348.932" rx="100.85" ry="100.08" style="fill:rgb(35,32,32);"/>
    </g>
    <ellipse cx="79.425" cy="71.278" rx="4.619" ry="5.389" style="fill:rgb(35,32,32);"/>
    <g transform="matrix(1.10227,0,0,1,215.099,969.677)">
        <ellipse cx="975.52" cy="110.54" rx="67.747" ry="83.144" style="fill:rgb(35,32,32);"/>
    </g>
    <g transform="matrix(0.247474,-0.0953171,0.0876151,0.227478,1244.08,932.491)">
        <path d="M1772.97,835.244L1920.15,1081.6L1625.8,1081.6L1772.97,835.244Z" style="fill:rgb(35,32,32);"/>
    </g>
    <g transform="matrix(1,0,0,1,35.413,-49.2702)">
        <ellipse cx="1576.31" cy="68.13" rx="67.747" ry="68.516" style="fill:rgb(35,32,32);"/>
    </g>
    <ellipse cx="1901.97" cy="218.25" rx="60.837" ry="60.048" style="fill:rgb(35,32,32);"/>
</svg>
