<?xml version="1.0" encoding="UTF-8" standalone="no"?>
<!DOCTYPE svg PUBLIC "-//W3C//DTD SVG 1.1//EN" "http://www.w3.org/Graphics/SVG/1.1/DTD/svg11.dtd">
<svg width="100%" height="100%" viewBox="0 0 1920 1080" version="1.1" xmlns="http://www.w3.org/2000/svg" xmlns:xlink="http://www.w3.org/1999/xlink" xml:space="preserve" xmlns:serif="http://www.serif.com/" style="fill-rule:evenodd;clip-rule:evenodd;stroke-linejoin:round;stroke-miterlimit:2;">
    <g transform="matrix(1.0008,0,0,0.997163,-1.54093,3.06724)">
        <rect x="1.54" y="-4.282" width="1918.03" height="1085.49" style="fill:rgb(255,216,0);"/>
    </g>
    <g transform="matrix(0.137654,-0.226672,0.208356,0.126531,1373.88,1180.53)">
        <path d="M1772.97,835.244L1920.15,1081.6L1625.8,1081.6L1772.97,835.244Z" style="fill:rgb(35,32,32);"/>
    </g>
    <g transform="matrix(0.256502,-0.067348,0.061906,0.235776,1212.68,796.425)">
        <path d="M1772.97,835.244L1920.15,1081.6L1625.8,1081.6L1772.97,835.244Z" style="fill:rgb(35,32,32);"/>
    </g>
    <g transform="matrix(0.247474,-0.0953171,0.0876151,0.227478,1244.08,932.491)">
        <path d="M1772.97,835.244L1920.15,1081.6L1625.8,1081.6L1772.97,835.244Z" style="fill:rgb(35,32,32);"/>
    </g>
    <g transform="matrix(0.247474,-0.0953171,0.0876151,0.227478,1219.44,7.1341)">
        <path d="M1772.97,835.244L1920.15,1081.6L1625.8,1081.6L1772.97,835.244Z" style="fill:rgb(35,32,32);"/>
    </g>
    <g transform="matrix(-0.265103,0.00701125,-0.00644471,-0.243682,1232.97,243.404)">
        <path d="M1772.97,835.244L1920.15,1081.6L1625.8,1081.6L1772.97,835.244Z" style="fill:rgb(35,32,32);"/>
    </g>
    <g transform="matrix(0.247474,-0.0953171,0.0876151,0.227478,1299.51,25.6104)">
        <path d="M1772.97,835.244L1920.15,1081.6L1625.8,1081.6L1772.97,835.244Z" style="fill:rgb(35,32,32);"/>
    </g>
    <g transform="matrix(0.247474,-0.0953171,0.0876151,0.227478,1248.7,85.6586)">
        <path d="M1772.97,835.244L1920.15,1081.6L1625.8,1081.6L1772.97,835.244Z" style="fill:rgb(35,32,32);"/>
    </g>
    <g transform="matrix(0.247474,-0.0953171,0.0876151,0.227478,-458.825,763.124)">
        <path d="M1772.97,835.244L1920.15,1081.6L1625.8,1081.6L1772.97,835.244Z" style="fill:rgb(35,32,32);"/>
    </g>
    <g transform="matrix(0.1393,0.225664,-0.20743,0.128044,94.2661,366.316)">
        <path d="M1772.97,835.244L1920.15,1081.6L1625.8,1081.6L1772.97,835.244Z" style="fill:rgb(35,32,32);"/>
    </g>
    <g transform="matrix(-0.00384842,0.265168,-0.243742,-0.00353745,429.119,536.16)">
        <path d="M1772.97,835.244L1920.15,1081.6L1625.8,1081.6L1772.97,835.244Z" style="fill:rgb(35,32,32);"/>
    </g>
    <g id="undraw_feeling_proud_qne1" transform="matrix(0.830536,0,0,0.830536,1480.54,535.52)">
        <g transform="matrix(1,0,0,1,-355.594,-334.841)">
            <clipPath id="_clip1">
                <rect x="0" y="0" width="711.188" height="669.683"/>
            </clipPath>
            <g clip-path="url(#_clip1)">
                <path d="M516.326,380.018L516.326,565.013L547.27,615.443L549.625,619.279L671.722,619.279L674.189,380.018L516.326,380.018Z" style="fill:rgb(230,230,230);fill-rule:nonzero;"/>
                <path d="M516.326,380.018L516.326,565.013L547.27,615.443L549.169,380.018L516.326,380.018Z" style="fill-opacity:0.1;fill-rule:nonzero;"/>
                <path d="M221.566,375.084L221.566,560.08L190.622,610.51L188.267,614.345L66.17,614.345L63.703,375.084L221.566,375.084Z" style="fill:rgb(230,230,230);fill-rule:nonzero;"/>
                <path d="M221.566,375.084L221.566,560.08L190.622,610.51L188.723,375.084L221.566,375.084Z" style="fill-opacity:0.1;fill-rule:nonzero;"/>
                <path d="M711.188,371.385L711.188,382.484L47.67,382.484L47.67,366.451L109.335,334.385L656.923,334.385L711.188,371.385Z" style="fill:rgb(230,230,230);fill-rule:nonzero;"/>
                <path d="M711.188,371.385L711.188,382.484L47.67,382.484L47.67,366.451L711.188,371.385Z" style="fill-opacity:0.1;fill-rule:nonzero;"/>
                <path d="M142.635,426.883L113.035,426.883L100.702,418.25L156.201,418.25L142.635,426.883Z" style="fill:rgb(63,61,86);fill-rule:nonzero;"/>
                <path d="M142.635,462.649L113.035,462.649L100.702,454.016L156.201,454.016L142.635,462.649Z" style="fill:rgb(63,61,86);fill-rule:nonzero;"/>
                <path d="M142.635,513.215L113.035,513.215L100.702,504.581L156.201,504.581L142.635,513.215Z" style="fill:rgb(63,61,86);fill-rule:nonzero;"/>
                <path d="M142.635,563.78L113.035,563.78L100.702,555.147L156.201,555.147L142.635,563.78Z" style="fill:rgb(63,61,86);fill-rule:nonzero;"/>
                <path d="M595.257,431.816L624.857,431.816L637.19,423.183L581.691,423.183L595.257,431.816Z" style="fill:rgb(63,61,86);fill-rule:nonzero;"/>
                <path d="M595.257,467.582L624.857,467.582L637.19,458.949L581.691,458.949L595.257,467.582Z" style="fill:rgb(63,61,86);fill-rule:nonzero;"/>
                <path d="M595.257,518.148L624.857,518.148L637.19,509.515L581.691,509.515L595.257,518.148Z" style="fill:rgb(63,61,86);fill-rule:nonzero;"/>
                <path d="M595.257,568.713L624.857,568.713L637.19,560.08L581.691,560.08L595.257,568.713Z" style="fill:rgb(63,61,86);fill-rule:nonzero;"/>
                <g transform="matrix(1,0,0,1,-244.406,-115.159)">
                    <path d="M859.82,235.615L610.634,235.615C610.634,235.615 610.634,235.615 610.633,235.615C605.464,235.615 601.211,239.868 601.211,245.038C601.211,245.038 601.211,245.038 601.211,245.039L601.211,412.897C601.211,412.897 601.211,412.897 601.211,412.898C601.211,418.067 605.464,422.32 610.633,422.32C610.634,422.32 610.634,422.32 610.634,422.32L705.227,422.32L701.683,444.947C701.683,444.947 681.431,455.706 695.671,456.022C709.911,456.339 776.999,456.022 776.999,456.022C776.999,456.022 789.973,456.022 769.404,444.63L766.07,422.32L859.82,422.32C859.82,422.32 859.821,422.32 859.821,422.32C864.99,422.32 869.244,418.067 869.244,412.898C869.244,412.897 869.244,412.897 869.244,412.897L869.244,245.039C869.244,245.038 869.244,245.038 869.244,245.038C869.244,239.868 864.99,235.615 859.821,235.615C859.821,235.615 859.82,235.615 859.82,235.615Z" style="fill:rgb(63,61,86);fill-rule:nonzero;"/>
                </g>
                <rect x="365.823" y="130.424" width="249.996" height="139.871" style="fill:rgb(242,242,242);"/>
                <circle cx="490.821" cy="125.994" r="1.582" style="fill:rgb(242,242,242);"/>
                <circle cx="490.821" cy="294.346" r="6.013" style="fill:rgb(242,242,242);"/>
                <path d="M481.452,357.952L481.452,361.117L311.202,361.117L311.202,358.585L311.436,357.952L315.632,346.56L477.971,346.56L481.452,357.952Z" style="fill:rgb(63,61,86);fill-rule:nonzero;"/>
                <g transform="matrix(1,0,0,1,-244.406,-115.159)">
                    <path d="M791.376,470.013C791.065,471.339 789.895,472.737 787.249,474.06C777.756,478.807 758.452,472.794 758.452,472.794C758.452,472.794 743.579,470.263 743.579,463.617C743.997,463.331 744.432,463.072 744.883,462.842C748.874,460.73 762.108,455.52 785.573,463.063C787.302,463.605 788.846,464.617 790.034,465.986C791.1,467.034 791.6,468.534 791.376,470.013Z" style="fill:rgb(63,61,86);fill-rule:nonzero;"/>
                </g>
                <g transform="matrix(1,0,0,1,-244.406,-115.159)">
                    <path d="M791.376,470.013C779.756,474.465 769.398,474.797 758.769,467.415C754.75,464.443 749.881,462.84 744.883,462.842C748.874,460.73 762.108,455.52 785.573,463.063C787.302,463.605 788.846,464.617 790.034,465.986C791.1,467.034 791.6,468.534 791.376,470.013Z" style="fill-opacity:0.1;fill-rule:nonzero;"/>
                </g>
                <ellipse cx="532.4" cy="350.99" rx="4.114" ry="1.266" style="fill:rgb(242,242,242);"/>
                <path d="M481.452,357.952L481.452,361.117L311.202,361.117L311.202,358.585L311.436,357.952L481.452,357.952Z" style="fill-opacity:0.1;fill-rule:nonzero;"/>
                <g transform="matrix(1,0,0,1,-244.406,-115.159)">
                    <path d="M339.068,115.159C337.34,115.017 335.609,115.404 334.106,116.267C332.63,117.278 331.7,119.049 330.75,120.697C327.12,127.072 322.204,132.624 316.316,137.001C312.027,140.143 306.574,144.061 307.308,149.854C307.695,151.767 308.402,153.601 309.399,155.279C313.355,163.266 324.152,169.439 323.09,178.552C327.021,171.972 321.763,168.717 325.694,162.137C327.566,159.003 330.818,155.465 333.645,157.433C334.591,158.092 335.213,159.274 336.198,159.852C338.549,161.232 341.051,158.594 343.132,156.726C350.309,150.283 360.515,151.971 369.446,153.979C373.662,154.926 378.293,156.17 380.785,160.199C384.062,165.497 377.672,171.22 376.057,177.21C375.989,177.476 375.954,177.751 375.954,178.026C375.954,179.816 377.427,181.29 379.218,181.29C379.332,181.29 379.447,181.284 379.56,181.272C382.24,181.008 385.415,180.791 385.573,179.615C388.945,179.735 393.076,179.353 394.52,175.842C394.962,174.453 395.195,173.007 395.213,171.549C395.743,165.652 398.246,160.272 399.904,154.659C401.562,149.047 402.283,142.469 399.485,137.492C398.486,135.837 397.251,134.336 395.819,133.037C379.94,117.67 359.063,115.136 339.068,115.159Z" style="fill:rgb(47,46,65);fill-rule:nonzero;"/>
                </g>
                <g transform="matrix(1,0,0,1,-244.406,-115.159)">
                    <path d="M326.544,190.064C326.544,190.064 329.997,218.842 317.335,221.145C304.672,223.447 328.846,262.585 328.846,262.585L386.403,269.492L372.589,223.447C372.589,223.447 363.38,219.993 369.136,196.971C374.891,173.948 326.544,190.064 326.544,190.064Z" style="fill:rgb(255,184,184);fill-rule:nonzero;"/>
                </g>
                <path d="M47.028,569.318L51.633,632.631L75.806,632.631L68.9,569.318L47.028,569.318Z" style="fill:rgb(255,184,184);fill-rule:nonzero;"/>
                <path d="M224.303,449.6L227.756,502.552L254.233,491.041L243.872,447.298L224.303,449.6Z" style="fill:rgb(255,184,184);fill-rule:nonzero;"/>
                <g transform="matrix(1,0,0,1,-244.406,-115.159)">
                    <path d="M274.167,442.738C274.167,442.738 275.318,509.504 282.225,531.376C289.132,553.247 287.981,554.398 286.83,557.852C285.678,561.305 284.527,559.003 284.527,564.759C284.527,570.514 282.225,661.454 284.527,669.512C286.83,677.57 277.621,691.384 284.527,692.535C291.434,693.686 323.666,692.535 324.817,685.628C325.968,678.721 315.608,676.419 320.213,671.814C324.817,667.21 331.724,572.817 331.724,572.817L347.84,507.202L377.769,472.668L441.082,472.668L460.651,548.643C460.651,548.643 452.593,570.514 458.349,570.514C464.105,570.514 498.639,577.421 498.639,552.096C498.639,526.771 487.127,451.947 484.825,449.645C482.523,447.343 485.976,439.285 482.523,435.831C479.069,432.378 438.78,408.204 423.815,403.6C408.85,398.995 387.857,393.515 387.857,393.515L274.167,442.738Z" style="fill:rgb(47,46,65);fill-rule:nonzero;"/>
                </g>
                <g transform="matrix(1,0,0,1,-244.406,-115.159)">
                    <path d="M498.639,596.991C498.639,596.991 481.372,591.235 473.314,608.502C465.256,625.769 468.709,630.373 468.709,630.373C468.709,630.373 495.185,639.583 499.79,634.978C501.793,632.975 508.154,632.279 514.702,632.132C524.675,631.908 527.329,617.799 517.91,614.513C517.629,614.415 517.345,614.33 517.057,614.258C507.848,611.955 498.639,596.991 498.639,596.991Z" style="fill:rgb(47,46,65);fill-rule:nonzero;"/>
                </g>
                <circle cx="108.038" cy="59.365" r="34.534" style="fill:rgb(255,184,184);"/>
                <g transform="matrix(1,0,0,1,-244.406,-115.159)">
                    <path d="M307.55,235.534C307.55,235.534 363.956,247.045 377.769,228.627C391.583,210.209 397.339,280.428 397.339,280.428L404.245,354.101L393.885,394.391C393.885,394.391 339.782,438.134 322.515,441.587C305.248,445.041 278.772,447.343 278.772,447.343C278.772,447.343 286.83,319.567 286.83,317.264C286.83,314.962 307.55,235.534 307.55,235.534Z" style="fill:white;fill-rule:nonzero;"/>
                </g>
                <g transform="matrix(1,0,0,1,-244.406,-115.159)">
                    <path d="M324.704,213.945C324.704,213.945 312.155,206.755 308.701,213.662C305.248,220.569 273.016,237.836 269.563,237.836C266.109,237.836 276.469,333.38 271.865,344.892C267.26,356.403 245.389,440.436 258.051,447.343C270.714,454.25 261.505,440.436 274.167,457.703C286.83,474.97 348.991,474.97 352.444,468.063C355.898,461.156 324.817,409.355 330.573,361.008C336.328,312.66 345.537,245.894 337.48,236.685C329.422,227.476 324.704,213.945 324.704,213.945Z" style="fill:rgb(47,46,65);fill-rule:nonzero;"/>
                </g>
                <g transform="matrix(1,0,0,1,-244.406,-115.159)">
                    <path d="M366.258,221.72L367.861,216.202C367.861,216.202 415.757,232.08 418.059,242.441C420.361,252.801 419.21,325.322 411.152,331.078C403.094,336.834 391.583,346.043 399.641,359.856C407.699,373.67 416.908,388.635 423.815,389.786C430.722,390.937 443.384,398.995 439.931,407.053C436.477,415.111 395.036,400.146 395.036,400.146C395.036,400.146 367.409,379.426 368.56,347.194C369.711,314.962 366.258,221.72 366.258,221.72Z" style="fill:rgb(47,46,65);fill-rule:nonzero;"/>
                </g>
                <g transform="matrix(1,0,0,1,-244.406,-115.159)">
                    <path d="M406.548,357.554L378.92,409.355C378.92,409.355 338.631,450.796 361.653,455.401C384.676,460.005 397.339,417.413 397.339,417.413L427.268,374.821L406.548,357.554Z" style="fill:rgb(255,184,184);fill-rule:nonzero;"/>
                </g>
                <g transform="matrix(1,0,0,1,-244.406,-115.159)">
                    <path d="M340.75,124.195C339.358,124.091 337.963,124.362 336.711,124.978C335.579,125.805 334.645,126.875 333.979,128.109C330.909,132.727 326.906,136.653 322.229,139.633C318.738,141.853 314.299,144.622 314.896,148.717C315.221,150.09 315.798,151.39 316.598,152.552C319.83,158.253 321.117,164.855 320.263,171.352L329.864,157.398C331.387,155.183 334.035,152.683 336.336,154.074C337.106,154.54 337.612,155.375 338.414,155.784C340.328,156.759 342.364,154.895 344.058,153.574C349.901,149.02 358.209,150.213 365.479,151.632C368.911,152.302 372.681,153.181 374.71,156.029C378.082,160.762 374.561,167.601 376.529,173.069C377.641,172.29 378.392,171.092 378.607,169.752C381.352,169.837 384.715,169.567 385.891,167.085C386.248,166.113 386.439,165.087 386.455,164.051C386.886,159.883 388.924,156.08 390.273,152.113C391.623,148.146 392.21,143.497 389.932,139.98C389.099,138.788 388.093,137.727 386.948,136.831C374.022,125.97 357.027,124.178 340.75,124.195Z" style="fill:rgb(47,46,65);fill-rule:nonzero;"/>
                </g>
                <g transform="matrix(1,0,0,1,-244.406,-115.159)">
                    <path d="M406.548,237.836L417.273,240.683C417.273,240.683 442.233,304.602 436.477,348.345C430.722,392.088 427.268,382.879 427.268,382.879C427.268,382.879 418.059,362.159 397.339,366.763L406.548,237.836Z" style="fill:rgb(47,46,65);fill-rule:nonzero;"/>
                </g>
                <g transform="matrix(1,0,0,1,-244.406,-115.159)">
                    <path d="M293.029,739.422C290.253,743.194 290.81,748.587 288.351,752.573C286.219,756.028 282.202,757.84 279.536,760.901C278.686,761.919 277.927,763.01 277.27,764.161C274.797,768.304 272.787,773.613 275.222,777.778C277.182,781.128 281.3,782.437 285.077,783.33C289.852,784.458 294.812,785.36 299.641,784.498C304.47,783.637 309.19,780.679 310.912,776.086C311.25,774.931 311.652,773.796 312.117,772.685C314.734,767.532 322.944,767.477 325.623,762.355C327.498,758.771 325.774,754.439 324.052,750.78L318.791,739.603C317.045,735.893 309.967,738.026 306.277,737.138C301.465,735.978 296.491,734.701 293.029,739.422Z" style="fill:rgb(47,46,65);fill-rule:nonzero;"/>
                </g>
                <g transform="matrix(1,0,0,1,-244.406,-115.159)">
                    <path d="M254.598,380.577L302.945,455.401C302.945,455.401 332.875,493.388 342.084,476.121C351.293,458.854 309.852,430.076 309.852,430.076L278.772,372.519L254.598,380.577Z" style="fill:rgb(255,184,184);fill-rule:nonzero;"/>
                </g>
                <g transform="matrix(1,0,0,1,-244.406,-115.159)">
                    <path d="M278.772,240.138L269.563,237.836C269.563,237.836 251.144,243.592 246.54,267.766C241.935,291.939 245.389,388.635 251.144,389.786C256.9,390.937 279.572,372.949 283.201,376.763C286.83,380.577 275.318,361.008 278.772,350.647C282.225,340.287 278.772,240.138 278.772,240.138Z" style="fill:rgb(47,46,65);fill-rule:nonzero;"/>
                </g>
                <g id="f3c2397c-d780-4cc6-97d8-1503d8277a2c">
                    <rect id="ad41612f-86f7-46b2-a964-3a5da7bcf3cf" x="437.407" y="176.363" width="29.752" height="7.163" style="fill:white;"/>
                    <rect id="b9a0b375-cc2a-4c59-8850-661af54e4f62" x="559.722" y="176.363" width="10.468" height="7.163" style="fill:white;"/>
                    <rect id="e174c2ab-9bc5-41ec-b37c-b06fbf8a9878" x="580.659" y="176.363" width="10.468" height="7.163" style="fill:white;"/>
                    <rect id="ba2479ac-4c7d-43b4-a028-73b1e20e4002" x="477.628" y="176.363" width="71.075" height="7.163" style="fill:white;"/>
                    <rect id="ac60ef86-00f2-480b-8171-28b6fdfc1958" x="399.941" y="222.644" width="29.752" height="7.163" style="fill:white;"/>
                    <rect id="b3d8298d-cd65-487a-8b19-4cee946356e7" x="522.256" y="222.644" width="10.468" height="7.163" style="fill:white;"/>
                    <rect id="ed27f15f-f0c4-4569-8330-a6688f8e356c" x="543.193" y="222.644" width="10.468" height="7.163" style="fill:white;"/>
                    <rect id="f685c005-adaf-4d60-acda-005b037d82a6" x="440.162" y="222.644" width="71.075" height="7.163" style="fill:white;"/>
                    <rect id="eca7c7fc-83f8-48ca-a588-6606db47af3f" x="522.807" y="192.341" width="29.752" height="7.163" style="fill:white;"/>
                    <rect id="a71b5b2f-f8b9-481d-a301-5e3357e5fe42" x="563.028" y="192.341" width="29.752" height="7.163" style="fill:white;"/>
                    <rect id="abb3a25a-f854-41fc-8391-e6ad9fbe2417" x="399.941" y="192.341" width="10.468" height="7.163" style="fill:white;"/>
                    <rect id="add2b425-b775-4eb5-9c25-8c4c14f957c9" x="420.878" y="192.341" width="10.468" height="7.163" style="fill:white;"/>
                    <rect id="b7159612-3b84-4b0b-a885-612eaab04c06" x="441.815" y="192.341" width="71.075" height="7.163" style="fill:white;"/>
                    <rect id="edfc7301-4de5-47dc-80e2-1ae2da982d6d" x="461.099" y="207.768" width="29.752" height="7.163" style="fill:white;"/>
                    <rect id="e1009f91-6275-4375-80fa-0d778e331fdc" x="420.878" y="207.768" width="29.752" height="7.163" style="fill:white;"/>
                    <rect id="a060fb9f-1f1a-4862-9a69-16dd49199e18" x="399.941" y="207.768" width="10.468" height="7.163" style="fill:white;"/>
                    <rect id="b6754d5f-104f-449c-b9a9-cf9ac82bf5fe" x="582.312" y="207.768" width="10.468" height="7.163" style="fill:white;"/>
                    <rect id="e6ed1ccd-2cfd-450f-a339-07df3a1ee6bb" x="500.768" y="207.768" width="71.075" height="7.163" style="fill:white;"/>
                </g>
            </g>
        </g>
    </g>
    <g transform="matrix(1.05426,0,0,1.29032,-117.138,-49.1845)">
        <ellipse cx="111.197" cy="111.818" rx="99.31" ry="95.461" style="fill:rgb(35,32,32);"/>
    </g>
    <g transform="matrix(1.19658,0.353793,-0.305921,1.03467,-152.155,-235.843)">
        <ellipse cx="305.198" cy="165.708" rx="86.993" ry="87.763" style="fill:rgb(35,32,32);"/>
    </g>
    <g transform="matrix(1.84227,0.604562,-0.61401,1.87106,-134.437,301.436)">
        <ellipse cx="165.086" cy="348.932" rx="100.85" ry="100.08" style="fill:rgb(35,32,32);"/>
    </g>
    <ellipse cx="79.425" cy="71.278" rx="4.619" ry="5.389" style="fill:rgb(35,32,32);"/>
    <g transform="matrix(1.10227,0,0,1,215.099,969.677)">
        <ellipse cx="975.52" cy="110.54" rx="67.747" ry="83.144" style="fill:rgb(35,32,32);"/>
    </g>
    <g transform="matrix(0.247474,-0.0953171,0.0876151,0.227478,1244.08,932.491)">
        <path d="M1772.97,835.244L1920.15,1081.6L1625.8,1081.6L1772.97,835.244Z" style="fill:rgb(35,32,32);"/>
    </g>
    <g transform="matrix(1,0,0,1,35.413,-49.2702)">
        <ellipse cx="1576.31" cy="68.13" rx="67.747" ry="68.516" style="fill:rgb(35,32,32);"/>
    </g>
    <ellipse cx="1901.97" cy="218.25" rx="60.837" ry="60.048" style="fill:rgb(35,32,32);"/>
</svg>
